<svg   xmlns="http://www.w3.org/2000/svg" x="0px"
	 y="0px" viewBox="0 0 92 16.7" style="enable-background:new 0 0 92 16.7;" class="edenlogo">


<g>
	<path fill="currentColor"  d="M13.7,0.7c0-0.1,0-0.1,0-0.2c-0.1-0.2-0.3-0.3-0.8-0.3c-0.3,0-0.6,0-1.1,0.1c-0.4,0-0.9,0.1-1.4,0.1H5.9
		c-0.4,0-1,0-1.6,0.1c-0.6,0-1.2,0.1-1.8,0.3C2,0.8,1.6,1,1.2,1.4C1,1.6,0.8,1.9,0.6,2.2C0.3,2.6,0.2,3,0,3.4c0,0.1,0,0.1,0,0.2
		c0,0.1,0,0.1,0.1,0.1c0,0,0.1,0,0.1-0.1c0.3-0.5,0.7-0.8,1.4-1.2C2.3,2.1,3,1.8,3.9,1.6s1.7-0.4,2.5-0.5C6.2,1.3,6.1,1.4,6,1.6
		S5.8,2,5.7,2.2C5.2,3.1,4.8,3.9,4.4,4.7c-0.3,0.8-0.7,1.6-1,2.5H2.6c-0.1,0-0.3,0.1-0.5,0.2C2,7.5,1.8,7.6,1.7,7.8
		C1.5,8,1.5,8.1,1.5,8.2c0,0.1,0.1,0.1,0.2,0.1h1.2C2.7,8.7,2.5,9.2,2.3,9.8S1.9,11,1.6,11.6c-0.2,0.6-0.4,1.2-0.5,1.8
		C0.9,14,0.9,14.6,0.9,15c0,0.3,0.1,0.6,0.2,0.8s0.3,0.3,0.5,0.3h6.9c0.7,0,1.3-0.1,2-0.2c0.7-0.1,1.2-0.4,1.6-0.9
		c0.2-0.2,0.4-0.5,0.5-0.8c0.2-0.3,0.3-0.6,0.4-1c0-0.1,0-0.1,0-0.2v-0.1c0-0.2-0.1-0.2-0.2-0.2c-0.1,0-0.1,0-0.1,0.1
		c-0.2,0.5-0.6,0.9-1.2,1.2c-0.5,0.3-1.1,0.6-1.8,0.8C9,15,8.2,15.1,7.4,15.2c-0.8,0.1-1.6,0.1-2.4,0.1c-0.6,0-1-0.1-1.2-0.3
		s-0.4-0.5-0.4-0.9c0-0.3,0-0.6,0.1-1s0.3-0.9,0.4-1.5c0.2-0.6,0.4-1.2,0.6-1.8C4.8,9.3,5,8.7,5.1,8.3h5.6c0.1,0,0.2-0.1,0.4-0.3
		c0.1-0.2,0.3-0.4,0.4-0.6c0.1-0.2,0.1-0.3,0.1-0.3h-6C6,6.2,6.5,5.3,7,4.3c0.5-0.9,1-1.8,1.6-2.7C8.8,1.3,9,1.2,9.3,1.1
		S9.9,1,10.3,1c0.6,0,1.1,0.1,1.4,0.4c0.4,0.3,0.6,0.6,0.6,1.1c0,0.2,0,0.4-0.1,0.6c0,0.2-0.1,0.4-0.1,0.6c0,0.2,0,0.3,0,0.3
		c0.1,0,0.1,0,0.2,0c0.1,0,0.1,0,0.2,0c0.1,0,0.1-0.1,0.1-0.2c0.1-0.2,0.2-0.5,0.4-0.9s0.3-0.7,0.4-1.1c0.1-0.4,0.2-0.7,0.2-1
		C13.8,0.8,13.7,0.7,13.7,0.7z"/>
	<path fill="currentColor" d="M27.1,1.2c-0.8,0-1.7-0.1-2.3,0.6c-0.3,0.4-0.5,0.9-0.7,1.3c-0.6,1.5-1.3,3.1-1.9,4.6c-0.7-0.8-2-1.1-3.1-0.8
		c-1.1,0.3-2,1-2.7,1.9c-1.1,1.3-1.7,3-1.8,4.7c-0.1,0.9,0.1,1.9,0.8,2.3c0.7,0.4,1.5,0.1,2.1-0.3c1.6-1,2.7-2.8,3.6-4.5
		c-0.5,1.3-0.7,2.6-0.5,4c0,0.3,0.1,0.7,0.3,0.9c0.2,0.2,0.7,0.3,0.9,0c0.1-0.1,0.1-0.2,0.1-0.3c1.1-5.1,2.5-10.2,5.5-14.4
		C27.3,1.2,27.2,1.2,27.1,1.2z M21.5,9.3c-0.2,0.4-0.4,0.8-0.5,1.1c-0.2,0.3-0.3,0.6-0.4,0.8c-0.6,0.9-1.1,1.7-1.7,2.2
		c-0.6,0.6-1.1,0.8-1.5,0.8c-0.1,0-0.2,0-0.2,0c-0.2-0.1-0.3-0.3-0.3-0.7s0.1-0.9,0.3-1.5c0.2-0.6,0.5-1.2,0.8-1.8
		c0.4-0.6,0.7-1.1,1.1-1.5c0.3-0.2,0.6-0.5,1-0.6c0.4-0.2,0.7-0.3,1.1-0.3c0.2,0,0.4,0,0.5,0.1c0.1,0,0.2,0.1,0.3,0.3
		C21.8,8.5,21.6,8.9,21.5,9.3z"/>
	<path fill="currentColor" d="M60.8,7.1c-1.8,0.9-3.9,1.1-5.7,2c-0.5,0.2-1,0.6-1.3,1s-0.3,1.2,0.1,1.6c0.2-0.5,0.5-1.2,1.1-1.2c0.4,0,0.8,0.2,1,0.6
		c0.2,0.4,0.2,0.8,0.1,1.2c-0.4,1.7-2.1,2.9-3.8,3.3c-1.4,0.3-3.1,0.1-4-1c-0.6-0.8-0.7-2-0.4-3s1.1-1.8,1.9-2.4
		c1-0.7,2.2-1.2,3.4-1c0.2,0,0.5,0.1,0.7,0.1s0.5-0.3,0.4-0.5c0-0.2-0.2-0.3-0.4-0.4c-0.2,0-0.4,0-0.6,0c-0.9,0-1.7-0.9-1.8-1.8
		s0.4-1.8,1.1-2.5c0.8-0.8,1.9-1.2,3-1.2c0.4,0,0.8,0,1.2,0.2s0.7,0.5,0.7,0.9c0.1,0.7-0.4,1.3-0.9,1.7c0.9,0.3,1.9-0.4,2.1-1.3
		S58.3,1.5,57.5,1c-1.8-1.1-4.4-0.3-5.9,0.8c-0.9,0.7-1.6,1.7-1.7,2.9s0.5,2.4,1.6,2.8c-1.3,0.1-2.6,0.5-3.6,1.3
		c-1.1,0.7-1.9,1.8-2.3,3c-0.3,0.9-0.3,1.8,0.1,2.7c0.6,1.3,2.2,1.9,3.6,2c2.6,0.3,5.4-0.4,7.3-2.2c0.5-0.5,1-1.1,1.2-1.8
		s0.1-1.5-0.3-2c-0.5-0.6-1.3-0.8-1.9-0.4c1.6-0.9,3.5-0.8,5.2-1.4c0.4-0.1,0.8-0.3,1-0.7c0.3-0.4,0.4-1,0.2-1.5
		C61.4,6.8,61.1,7,60.8,7.1z"/>
	<g>
		<path fill="currentColor" d="M85.8,7.2c-0.4-0.3-0.9-0.4-1.6-0.4c-0.8,0-1.6,0.2-2.3,0.6s-1.3,1-1.7,1.6c-0.5,0.7-0.8,1.4-1.1,2.2
			c-0.3,0.8-0.4,1.5-0.4,2.2c0,1,0.3,1.7,0.8,2.1c0.5,0.4,1.1,0.7,1.8,0.7c1.1,0,2-0.3,2.7-0.8s1.3-1.2,1.7-1.9
			C86.4,12.4,87,11,87,9.6c0-0.5-0.1-1-0.2-1.4C86.5,7.9,86.2,7.5,85.8,7.2z M85.7,10.5c-0.1,0.5-0.3,1-0.5,1.5
			c-0.1,0.3-0.3,0.7-0.5,1c-0.2,0.4-0.4,0.7-0.7,1.1c-0.3,0.3-0.6,0.6-0.9,0.9c-0.3,0.2-0.7,0.4-1,0.4c-0.5,0-0.8-0.1-1-0.4
			c-0.2-0.3-0.3-0.6-0.3-1.1s0.1-1,0.2-1.6c0.2-0.6,0.3-1,0.5-1.4c0.1-0.3,0.3-0.6,0.5-0.9c0.2-0.3,0.4-0.7,0.7-1
			c0.3-0.3,0.5-0.6,0.9-0.8c0.3-0.2,0.6-0.3,1-0.3C86.1,7.9,85.9,9.6,85.7,10.5z"/>
		<path fill="currentColor" d="M82.2,5.5c0.6,0,1.1-0.7,1.2-1.7S83,2,82.4,2s-1.1,0.7-1.2,1.7C81.2,4.6,81.6,5.4,82.2,5.5z"/>
		<path fill="currentColor" d="M86.7,1.8C86.2,1.6,85.4,2.1,85,3s-0.2,1.8,0.3,2s1.3-0.3,1.7-1.2C87.4,2.9,87.3,2,86.7,1.8z"/>
		<path fill="currentColor" d="M91.9,7.7c-0.3-0.5-1.2-0.5-2.1,0C89,8.2,88.6,9,88.9,9.5s1.2,0.5,2.1,0C91.8,9,92.2,8.2,91.9,7.7z"/>
		<path fill="currentColor" d="M90.1,3.8c-0.5-0.4-1.3-0.1-2,0.7c-0.6,0.8-0.7,1.7-0.3,2c0.5,0.4,1.3,0.1,2-0.7C90.4,5.1,90.5,4.2,90.1,3.8z"/>
	</g>
	<g>
		<path fill="currentColor" d="M42,13.4c0.1-0.5,0.2-0.9,0.4-1.4c0.4-1.1,0.8-2.2,1.1-3.3c0.1-0.5,0.2-1.1-0.1-1.5c-0.2-0.2-0.5-0.3-0.9-0.3
			C41.7,6.8,41,7,40.3,7.4c-0.7,0.3-1.3,0.8-1.8,1.3c0.2-0.4,0.4-0.9,0.1-1.3C38.4,7.1,38,7,37.7,7c-0.3,0-0.7,0-1,0.1
			c-0.1,0-0.1,0-0.1,0.1s0,0.2,0,0.2c0,0.1,0,0.3-0.1,0.4c-0.1,0.6-0.2,1.2-0.4,1.7c-0.4,1.2-0.8,2.3-1.3,3.4c-0.4,1-0.8,2-1,3.1
			c0.6,0,1.3,0,1.9,0c0.1,0,0.1,0,0.2,0c0,0,0.1-0.1,0.1-0.2c0.7-2.2,1.2-4.5,2.6-6.3c0.5-0.7,1.1-1.3,2-1.6c0.2-0.1,0.4-0.1,0.6,0
			c0.2,0,0.3,0.2,0.4,0.4c0,0.1,0,0.2,0,0.3c-0.6,2-1.7,4-1.7,6.1c0,0.5,0.1,1,0.4,1.2c0.3,0.2,0.8,0.2,1.2,0.2c0.1,0,0.2,0,0.3-0.1
			c0.2-0.1,0.2-0.4,0.1-0.6C41.7,14.8,41.8,14.1,42,13.4z"/>
	</g>
	<g>
		<path fill="currentColor" d="M31.9,13.5c-0.2,0.1-0.3,0.2-0.4,0.3c-0.5,0.5-1,1-1.7,1.2c-0.7,0.3-1.7,0.4-2.2-0.1c-0.4-0.4-0.5-0.9-0.5-1.4
			c0-0.7,0.1-1.4,0.4-2.1c1.2,0.3,2.4,0.3,3.5-0.2c0.6-0.3,1.2-0.6,1.5-1.2c0.4-0.5,0.5-1.2,0.3-1.8C32,6.2,29.3,7,28,7.9
			c-1.6,1.1-2.7,2.8-3,4.7c-0.1,0.7-0.1,1.5,0.3,2.1c0.6,1.2,2,1.7,3.3,1.5c1.3-0.2,2.4-0.9,3.4-1.8c0.1-0.1,0.3-0.3,0.3-0.5
			c0.1-0.2,0-0.4-0.2-0.5C32.1,13.5,32,13.5,31.9,13.5z M28.3,9.9c0.2-0.3,0.3-0.5,0.5-0.7s0.3-0.4,0.4-0.4c0.2-0.2,0.5-0.4,0.7-0.6
			c0.2-0.2,0.5-0.3,0.7-0.3s0.3-0.1,0.5-0.1s0.4,0.1,0.5,0.2s0.1,0.3,0.1,0.5c0,0.4-0.2,0.8-0.4,1.1c-0.2,0.3-0.5,0.6-0.9,0.9
			c-0.2,0.2-0.5,0.3-0.8,0.4C29.4,11,29.1,11,28.8,11c-0.1,0-0.2,0-0.3,0c-0.1,0-0.2,0-0.2-0.1c-0.1-0.1-0.2-0.2-0.2-0.3
			C28.1,10.4,28.2,10.2,28.3,9.9z"/>
	</g>
	<g>
		<path fill="currentColor" d="M77.8,3C78,1.8,77,0.7,75.9,0.3c-1.5-0.5-3.4-0.3-4.8,0.1c-1.5,0.5-2.9,1.2-4,2.3c-0.2,0.2-0.4,0.3-0.5,0.5
			c-1.6,1.6-2.7,3.5-3.4,5.7c-0.4,1.3-0.6,2.6-0.4,3.9c0.2,1.3,0.9,2.6,2,3.3c0.9,0.6,2,0.7,3.1,0.7c2.6,0,5.2-0.8,7.2-2.4
			c0.8-0.6,1.6-1.4,2.1-2.3c0.2-0.3,0.3-0.6,0.4-1c0-0.4-0.1-0.7-0.4-1c-1.4,2.6-3.9,4.6-6.8,5.3c-0.8,0.2-1.6,0.3-2.4,0.2
			s-1.6-0.5-2-1.1c-0.5-0.6-0.7-1.5-0.7-2.3c-0.1-2.2,0.4-4.5,1.6-6.4s2.9-3.4,5-4.4c1-0.4,2.4-0.8,3.5-0.4c0.9,0.3,1.7,1.1,2,2.1
			c0,0.1,0.1,0.2,0.1,0.2C77.7,3.4,77.8,3.2,77.8,3C77.8,3.1,77.8,3,77.8,3z"/>
	</g>
</g>
</svg>
